<svg width="492" height="38" viewBox="0 0 492 38" fill="none" xmlns="http://www.w3.org/2000/svg">
<path d="M14.9 1.4L6.9 23.1C6.83333 23.3667 6.91667 23.5 7.15 23.5H22.75C22.9833 23.5 23.0667 23.3667 23 23.1L15 1.4C15 1.36666 14.9833 1.35 14.95 1.35C14.9167 1.35 14.9 1.36666 14.9 1.4ZM1.25 37C1.11667 37 1 36.95 0.9 36.85C0.833333 36.75 0.833333 36.6333 0.9 36.5L13.95 1.2C14.1167 0.733332 14.4333 0.499999 14.9 0.499999C15.4 0.499999 15.75 0.733332 15.95 1.2L29 36.5C29.0333 36.6333 29 36.75 28.9 36.85C28.8333 36.95 28.75 37 28.65 37C28.2833 37 28.05 36.8333 27.95 36.5L23.65 24.9C23.5167 24.6333 23.3333 24.5 23.1 24.5H6.8C6.53333 24.5 6.35 24.6333 6.25 24.9L1.95 36.5C1.81667 36.8333 1.58333 37 1.25 37ZM43.7883 36.5C43.7883 36.8333 43.6216 37 43.2883 37C42.9549 37 42.7883 36.8333 42.7883 36.5V3.35C42.7883 2.58333 43.0716 1.91666 43.6383 1.35C44.2049 0.783332 44.8716 0.499999 45.6383 0.499999H61.7883C62.1216 0.499999 62.2883 0.666666 62.2883 0.999999C62.2883 1.33333 62.1216 1.5 61.7883 1.5H44.2383C43.9383 1.5 43.7883 1.63333 43.7883 1.9V16.55C43.7883 16.85 43.9383 17 44.2383 17H60.7883C61.1216 17 61.2883 17.1667 61.2883 17.5C61.2883 17.8333 61.1216 18 60.7883 18H44.2383C43.9383 18 43.7883 18.15 43.7883 18.45V36.5ZM79.1203 2.1V19.85C79.1203 20.1167 79.2703 20.2833 79.5703 20.35C81.9703 20.6167 84.3203 20.75 86.6203 20.75C90.6536 20.75 93.737 19.9 95.8703 18.2C98.037 16.4667 99.1203 13.9833 99.1203 10.75C99.1203 7.55 98.0536 5.13333 95.9203 3.5C93.8203 1.83333 90.7203 0.999999 86.6203 0.999999C84.187 0.999999 81.837 1.2 79.5703 1.6C79.2703 1.66667 79.1203 1.83333 79.1203 2.1ZM79.1203 36.5C79.1203 36.8333 78.9536 37 78.6203 37C78.287 37 78.1203 36.8333 78.1203 36.5V3.65C78.1203 2.81666 78.387 2.08333 78.9203 1.45C79.4536 0.816666 80.1203 0.449999 80.9203 0.349998C82.687 0.116666 84.587 -4.76837e-07 86.6203 -4.76837e-07C90.987 -4.76837e-07 94.3203 0.933333 96.6203 2.8C98.9536 4.63333 100.12 7.28333 100.12 10.75C100.12 14.25 98.937 16.9667 96.5703 18.9C94.237 20.8 90.9203 21.75 86.6203 21.75C84.3203 21.75 81.9703 21.6167 79.5703 21.35C79.2703 21.2833 79.1203 21.4 79.1203 21.7V36.5ZM115.234 36.5C115.234 36.8333 115.067 37 114.734 37C114.4 37 114.234 36.8333 114.234 36.5V0.999999C114.234 0.666666 114.4 0.499999 114.734 0.499999C115.067 0.499999 115.234 0.666666 115.234 0.999999V16.05C115.234 16.35 115.384 16.5 115.684 16.5H135.834C136.1 16.5 136.234 16.35 136.234 16.05V0.999999C136.234 0.666666 136.4 0.499999 136.734 0.499999C137.067 0.499999 137.234 0.666666 137.234 0.999999V36.5C137.234 36.8333 137.067 37 136.734 37C136.4 37 136.234 36.8333 136.234 36.5V17.95C136.234 17.65 136.1 17.5 135.834 17.5H115.684C115.384 17.5 115.234 17.65 115.234 17.95V36.5ZM176.964 5.6C174.564 2.53333 171.097 0.999999 166.564 0.999999C162.03 0.999999 158.564 2.53333 156.164 5.6C153.764 8.63333 152.564 13.0167 152.564 18.75C152.564 24.4833 153.764 28.8833 156.164 31.95C158.564 34.9833 162.03 36.5 166.564 36.5C171.097 36.5 174.564 34.9833 176.964 31.95C179.364 28.8833 180.564 24.4833 180.564 18.75C180.564 13.0167 179.364 8.63333 176.964 5.6ZM177.614 32.6C175.014 35.8667 171.33 37.5 166.564 37.5C161.797 37.5 158.097 35.8667 155.464 32.6C152.864 29.3333 151.564 24.7167 151.564 18.75C151.564 12.7833 152.864 8.16667 155.464 4.9C158.097 1.63333 161.797 -4.76837e-07 166.564 -4.76837e-07C171.33 -4.76837e-07 175.014 1.63333 177.614 4.9C180.247 8.16667 181.564 12.7833 181.564 18.75C181.564 24.7167 180.247 29.3333 177.614 32.6ZM193.181 1.5C192.848 1.5 192.681 1.33333 192.681 0.999999C192.681 0.666666 192.848 0.499999 193.181 0.499999H217.181C217.514 0.499999 217.681 0.666666 217.681 0.999999C217.681 1.33333 217.514 1.5 217.181 1.5H206.131C205.831 1.5 205.681 1.65 205.681 1.95V36.5C205.681 36.8333 205.514 37 205.181 37C204.848 37 204.681 36.8333 204.681 36.5V1.95C204.681 1.65 204.531 1.5 204.231 1.5H193.181ZM254.171 5.6C251.771 2.53333 248.304 0.999999 243.771 0.999999C239.237 0.999999 235.771 2.53333 233.371 5.6C230.971 8.63333 229.771 13.0167 229.771 18.75C229.771 24.4833 230.971 28.8833 233.371 31.95C235.771 34.9833 239.237 36.5 243.771 36.5C248.304 36.5 251.771 34.9833 254.171 31.95C256.571 28.8833 257.771 24.4833 257.771 18.75C257.771 13.0167 256.571 8.63333 254.171 5.6ZM254.821 32.6C252.221 35.8667 248.537 37.5 243.771 37.5C239.004 37.5 235.304 35.8667 232.671 32.6C230.071 29.3333 228.771 24.7167 228.771 18.75C228.771 12.7833 230.071 8.16667 232.671 4.9C235.304 1.63333 239.004 -4.76837e-07 243.771 -4.76837e-07C248.537 -4.76837e-07 252.221 1.63333 254.821 4.9C257.454 8.16667 258.771 12.7833 258.771 18.75C258.771 24.7167 257.454 29.3333 254.821 32.6ZM287.378 37.5C282.645 37.5 278.795 35.8333 275.828 32.5C272.861 29.1667 271.378 24.5833 271.378 18.75C271.378 13.0167 272.895 8.46667 275.928 5.1C278.961 1.7 282.945 -4.76837e-07 287.878 -4.76837e-07C290.845 -4.76837e-07 293.678 0.449999 296.378 1.35C296.711 1.45 296.878 1.68333 296.878 2.05C296.878 2.18333 296.828 2.28333 296.728 2.35C296.628 2.41666 296.511 2.43333 296.378 2.4C293.611 1.46667 290.778 0.999999 287.878 0.999999C283.178 0.999999 279.411 2.61667 276.578 5.85C273.778 9.05 272.378 13.35 272.378 18.75C272.378 24.15 273.728 28.4667 276.428 31.7C279.161 34.9 282.811 36.5 287.378 36.5C290.845 36.5 294.061 35.9333 297.028 34.8C297.261 34.7 297.378 34.5167 297.378 34.25V17.95C297.378 17.65 297.228 17.5 296.928 17.5H283.878C283.545 17.5 283.378 17.3333 283.378 17C283.378 16.6667 283.545 16.5 283.878 16.5H295.528C296.295 16.5 296.961 16.7833 297.528 17.35C298.095 17.9167 298.378 18.5833 298.378 19.35V32.5C298.378 33.3667 298.128 34.1667 297.628 34.9C297.161 35.6333 296.528 36.1167 295.728 36.35C293.295 37.1167 290.511 37.5 287.378 37.5ZM315.722 2.05V17.8C315.722 18.1 315.872 18.25 316.172 18.25H321.722C326.422 18.25 329.839 17.55 331.972 16.15C334.139 14.75 335.222 12.6167 335.222 9.75C335.222 3.91667 331.055 0.999999 322.722 0.999999C320.522 0.999999 318.322 1.18333 316.122 1.55C315.855 1.61667 315.722 1.78333 315.722 2.05ZM315.722 36.5C315.722 36.8333 315.555 37 315.222 37C314.889 37 314.722 36.8333 314.722 36.5V3.6C314.722 2.76667 314.989 2.03333 315.522 1.4C316.055 0.766666 316.722 0.399999 317.522 0.299999C319.222 0.0999992 320.955 -4.76837e-07 322.722 -4.76837e-07C331.722 -4.76837e-07 336.222 3.25 336.222 9.75C336.222 14.75 333.239 17.7667 327.272 18.8C327.205 18.8 327.172 18.8167 327.172 18.85C327.172 18.9167 327.205 18.95 327.272 18.95C328.172 19.3167 328.972 20 329.672 21C330.372 22 331.322 23.8333 332.522 26.5L337.022 36.5C337.055 36.6333 337.039 36.75 336.972 36.85C336.905 36.95 336.805 37 336.672 37C336.339 37 336.089 36.8333 335.922 36.5L331.622 26.9C330.889 25.2667 330.305 24.05 329.872 23.25C329.439 22.45 328.989 21.7333 328.522 21.1C328.089 20.4333 327.539 20 326.872 19.8C326.205 19.6 325.522 19.4667 324.822 19.4C324.155 19.3 323.122 19.25 321.722 19.25H316.172C315.872 19.25 315.722 19.4 315.722 19.7V36.5ZM363.504 1.4L355.504 23.1C355.437 23.3667 355.52 23.5 355.754 23.5H371.354C371.587 23.5 371.67 23.3667 371.604 23.1L363.604 1.4C363.604 1.36666 363.587 1.35 363.554 1.35C363.52 1.35 363.504 1.36666 363.504 1.4ZM349.854 37C349.72 37 349.604 36.95 349.504 36.85C349.437 36.75 349.437 36.6333 349.504 36.5L362.554 1.2C362.72 0.733332 363.037 0.499999 363.504 0.499999C364.004 0.499999 364.354 0.733332 364.554 1.2L377.604 36.5C377.637 36.6333 377.604 36.75 377.504 36.85C377.437 36.95 377.354 37 377.254 37C376.887 37 376.654 36.8333 376.554 36.5L372.254 24.9C372.12 24.6333 371.937 24.5 371.704 24.5H355.404C355.137 24.5 354.954 24.6333 354.854 24.9L350.554 36.5C350.42 36.8333 350.187 37 349.854 37ZM392.392 2.1V19.85C392.392 20.1167 392.542 20.2833 392.842 20.35C395.242 20.6167 397.592 20.75 399.892 20.75C403.925 20.75 407.008 19.9 409.142 18.2C411.308 16.4667 412.392 13.9833 412.392 10.75C412.392 7.55 411.325 5.13333 409.192 3.5C407.092 1.83333 403.992 0.999999 399.892 0.999999C397.458 0.999999 395.108 1.2 392.842 1.6C392.542 1.66667 392.392 1.83333 392.392 2.1ZM392.392 36.5C392.392 36.8333 392.225 37 391.892 37C391.558 37 391.392 36.8333 391.392 36.5V3.65C391.392 2.81666 391.658 2.08333 392.192 1.45C392.725 0.816666 393.392 0.449999 394.192 0.349998C395.958 0.116666 397.858 -4.76837e-07 399.892 -4.76837e-07C404.258 -4.76837e-07 407.592 0.933333 409.892 2.8C412.225 4.63333 413.392 7.28333 413.392 10.75C413.392 14.25 412.208 16.9667 409.842 18.9C407.508 20.8 404.192 21.75 399.892 21.75C397.592 21.75 395.242 21.6167 392.842 21.35C392.542 21.2833 392.392 21.4 392.392 21.7V36.5ZM428.505 36.5C428.505 36.8333 428.338 37 428.005 37C427.672 37 427.505 36.8333 427.505 36.5V0.999999C427.505 0.666666 427.672 0.499999 428.005 0.499999C428.338 0.499999 428.505 0.666666 428.505 0.999999V16.05C428.505 16.35 428.655 16.5 428.955 16.5H449.105C449.372 16.5 449.505 16.35 449.505 16.05V0.999999C449.505 0.666666 449.672 0.499999 450.005 0.499999C450.338 0.499999 450.505 0.666666 450.505 0.999999V36.5C450.505 36.8333 450.338 37 450.005 37C449.672 37 449.505 36.8333 449.505 36.5V17.95C449.505 17.65 449.372 17.5 449.105 17.5H428.955C428.655 17.5 428.505 17.65 428.505 17.95V36.5ZM477.085 20.3L464.435 0.999999C464.368 0.899998 464.352 0.799998 464.385 0.699999C464.452 0.566666 464.552 0.499999 464.685 0.499999C465.118 0.499999 465.435 0.666666 465.635 0.999999L477.735 19.6H477.835H477.935L490.035 0.999999C490.268 0.666666 490.585 0.499999 490.985 0.499999C491.118 0.499999 491.202 0.566666 491.235 0.699999C491.302 0.799998 491.302 0.899998 491.235 0.999999L478.585 20.3C478.418 20.5667 478.335 20.8333 478.335 21.1V36.5C478.335 36.8333 478.168 37 477.835 37C477.502 37 477.335 36.8333 477.335 36.5V21.1C477.335 20.8333 477.252 20.5667 477.085 20.3Z" fill="black"/>
</svg>
